<mxfile host="app.diagrams.net" modified="2020-10-14T11:18:53.619Z" agent="5.0 (Windows NT 10.0; Win64; x64) AppleWebKit/537.36 (KHTML, like Gecko) Chrome/86.0.4240.75 Safari/537.36" etag="awJG2RW_XXGCX4OsK8Ld" version="13.8.0" type="github">
  <diagram id="Hsa76RIKg2TaYVK6r8vG" name="Page-1">
    <mxGraphModel dx="1422" dy="762" grid="1" gridSize="10" guides="1" tooltips="1" connect="1" arrows="1" fold="1" page="1" pageScale="1" pageWidth="827" pageHeight="1169" math="0" shadow="0">
      <root>
        <mxCell id="0" />
        <mxCell id="1" parent="0" />
        <mxCell id="zS7K7Rwd__opWjOUmQ93-21" style="edgeStyle=orthogonalEdgeStyle;rounded=0;orthogonalLoop=1;jettySize=auto;html=1;exitX=1;exitY=0;exitDx=0;exitDy=0;entryX=0.75;entryY=1;entryDx=0;entryDy=0;curved=1;" edge="1" parent="1" source="zS7K7Rwd__opWjOUmQ93-17" target="zS7K7Rwd__opWjOUmQ93-18">
          <mxGeometry relative="1" as="geometry" />
        </mxCell>
        <mxCell id="zS7K7Rwd__opWjOUmQ93-17" value="" style="ellipse;whiteSpace=wrap;html=1;aspect=fixed;" vertex="1" parent="1">
          <mxGeometry x="710" y="410" width="80" height="80" as="geometry" />
        </mxCell>
        <mxCell id="zS7K7Rwd__opWjOUmQ93-22" style="edgeStyle=orthogonalEdgeStyle;rounded=0;orthogonalLoop=1;jettySize=auto;html=1;entryX=1;entryY=0.5;entryDx=0;entryDy=0;shape=link;" edge="1" parent="1" source="zS7K7Rwd__opWjOUmQ93-18" target="zS7K7Rwd__opWjOUmQ93-17">
          <mxGeometry relative="1" as="geometry" />
        </mxCell>
        <mxCell id="zS7K7Rwd__opWjOUmQ93-18" value="" style="shape=parallelogram;perimeter=parallelogramPerimeter;whiteSpace=wrap;html=1;fixedSize=1;" vertex="1" parent="1">
          <mxGeometry x="520" y="400" width="120" height="70" as="geometry" />
        </mxCell>
        <mxCell id="zS7K7Rwd__opWjOUmQ93-19" value="" style="shape=document;whiteSpace=wrap;html=1;boundedLbl=1;" vertex="1" parent="1">
          <mxGeometry x="354" y="290" width="120" height="80" as="geometry" />
        </mxCell>
      </root>
    </mxGraphModel>
  </diagram>
</mxfile>
